<?xml version="1.0" encoding="iso-8859-1"?>
<!-- Uploaded to: SVG Repo, www.svgrepo.com, Generator: SVG Repo Mixer Tools -->
<svg version="1.1" id="Layer_1" xmlns="http://www.w3.org/2000/svg" xmlns:xlink="http://www.w3.org/1999/xlink" 
	 viewBox="0 0 512.001 512.001" xml:space="preserve">
<path style="fill:#F29A36;" d="M305.379,466.316c-64.623,64.623-175.451,60.688-247.946-11.807
	c-71.629-71.629-76.902-182.85-11.807-247.946c33.374-33.374,79.893-49.038,129.639-44.316
	c5.196-14.797,13.224-27.707,23.851-38.333c36.444-36.444,97.054-41.167,147.272-11.413l53.052,53.052
	c28.494,48.172,25.346,105.79-7.084,142.628c-1.338,1.653-2.834,3.149-4.329,4.644c-10.626,10.626-23.536,18.654-38.333,23.851
	C354.496,386.344,338.753,432.941,305.379,466.316z"/>
<path style="fill:#E7812E;" d="M305.379,466.316c-64.623,64.623-175.451,60.688-247.946-11.807l315.482-315.482l26.526,26.526
	c28.494,48.172,25.346,105.79-7.084,142.628c-1.338,1.653-2.834,3.149-4.329,4.644c-10.626,10.626-23.536,18.654-38.333,23.851
	C354.496,386.344,338.753,432.941,305.379,466.316z"/>
<rect x="288.741" y="31.179" transform="matrix(-0.7071 -0.7071 0.7071 -0.7071 456.0188 535.1024)" style="fill:#A66342;" width="100.184" height="283.855"/>
<rect x="331.488" y="48.896" transform="matrix(0.7071 0.7071 -0.7071 0.7071 239.3591 -196.2166)" style="fill:#995B3D;" width="50.092" height="283.855"/>
<g>
	<path style="fill:#A66342;" d="M151.889,407.281l-47.227-47.227c-6.521-6.521-6.521-17.093,0-23.614l0,0
		c6.521-6.521,17.093-6.521,23.614,0l47.227,47.227c6.521,6.521,6.521,17.093,0,23.614l0,0
		C168.982,413.802,158.41,413.802,151.889,407.281z"/>
	<path style="fill:#A66342;" d="M462.804,119.979l-70.842-70.842l39.357-39.356c13.042-13.042,34.186-13.042,47.227,0l23.615,23.614
		c13.042,13.042,13.042,34.186,0,47.227L462.804,119.979z"/>
</g>
<rect x="381.221" y="63.924" transform="matrix(-0.7071 -0.7071 0.7071 -0.7071 679.2899 442.6139)" style="fill:#5C5F66;" width="100.184" height="33.395"/>
<path style="fill:#995B3D;" d="M502.161,33.395l-11.807-11.807l-62.971,62.971l35.421,35.421l39.356-39.356
	C515.203,67.581,515.203,46.437,502.161,33.395z"/>
<rect x="423.989" y="81.634" transform="matrix(0.7071 0.7071 -0.7071 0.7071 201.0502 -288.7154)" style="fill:#53565C;" width="50.092" height="33.395"/>
<path style="fill:#995B3D;" d="M175.502,383.667l-23.614-23.614l-23.614,23.614l23.614,23.614c6.52,6.52,17.093,6.521,23.614,0
	S182.023,390.187,175.502,383.667z"/>
<path style="fill:#5C5F66;" d="M175.503,336.439L175.503,336.439c-26.084-26.084-26.084-68.372,0-94.456l0,0
	c26.083-26.083,68.372-26.083,94.456,0l0,0c26.083,26.083,26.083,68.372,0,94.456l0,0
	C243.875,362.523,201.586,362.523,175.503,336.439z"/>
<path style="fill:#53565C;" d="M269.958,336.439c26.084-26.084,26.084-68.372,0-94.456l-94.456,94.456
	C201.586,362.523,243.875,362.523,269.958,336.439z"/>
</svg>