<?xml version="1.0" encoding="iso-8859-1"?>
<!-- Uploaded to: SVG Repo, www.svgrepo.com, Generator: SVG Repo Mixer Tools -->
<svg height="800px" width="800px" version="1.1" id="Layer_1" xmlns="http://www.w3.org/2000/svg" xmlns:xlink="http://www.w3.org/1999/xlink" 
	 viewBox="0 0 511.988 511.988" xml:space="preserve">
<path style="fill:#ED5564;" d="M408.428,33.53c-18.547-11.155-41.156-19.655-67.217-25.28c-25.328-5.469-54-8.25-85.217-8.25
	c-31.218,0-59.889,2.781-85.217,8.25c-26.062,5.625-48.67,14.125-67.217,25.28C63.718,57.499,42.671,93.857,42.671,138.669
	c0,43.968,30.312,135.716,72.076,218.151c29.359,57.951,86.764,155.168,141.247,155.168c54.482,0,111.887-97.217,141.246-155.168
	c41.766-82.436,72.076-174.184,72.076-218.151C469.316,93.857,448.27,57.499,408.428,33.53z"/>
<path style="opacity:0.2;fill:#FFFFFF;enable-background:new    ;" d="M408.428,33.53c-18.547-11.155-41.156-19.655-67.217-25.28
	c-25.328-5.469-54-8.25-85.217-8.25c-3.594,0-7.141,0.047-10.671,0.125c27.109,0.562,52.138,3.281,74.56,8.125
	c26.047,5.625,48.67,14.125,67.201,25.28c39.844,23.969,60.904,60.327,60.904,105.139c0,43.968-30.311,135.716-72.076,218.151
	c-27.451,54.186-79.42,142.684-130.589,153.965c3.562,0.797,7.125,1.203,10.671,1.203c54.482,0,111.887-97.217,141.246-155.168
	c41.766-82.436,72.076-174.184,72.076-218.151C469.316,93.857,448.27,57.499,408.428,33.53z"/>
<path style="fill:#FFCE54;" d="M255.995,106.67c-47.046,0-85.326,38.28-85.326,85.325c0,47.062,38.28,85.343,85.326,85.343
	c47.045,0,85.326-38.281,85.326-85.343C341.32,144.95,303.04,106.67,255.995,106.67z"/>
<path style="fill:#434A54;" d="M202.653,298.665c-2.5,0-5.016-0.875-7.047-2.656c-4.422-3.891-4.844-10.641-0.953-15.062
	l68.967-78.279h-39.624c-4.203,0-8.016-2.469-9.734-6.297s-1.031-8.312,1.766-11.452l85.325-95.998
	c3.922-4.406,10.656-4.797,15.062-0.891c4.406,3.922,4.797,10.656,0.891,15.062l-69.561,78.248h39.482
	c4.188,0,7.984,2.453,9.719,6.281c1.719,3.812,1.047,8.28-1.719,11.437l-84.56,95.998
	C208.558,297.446,205.621,298.665,202.653,298.665z"/>
</svg>